{"title":"La.Piel.Que.Habito.2011.DVDRip.AC3.HORiZON-ArtSubs","uid":6866057,"size":1570125824,"categoryP":"video","categoryS":"movies","magnet":"?xt=urn:btih:8854575fd2d8a1b2813830954f14444685600110&amp;dn=La.Piel.Que.Habito.2011.DVDRip.AC3.HORiZON-ArtSubs&amp;tr=udp%3A%2F%2Ftracker.openbittorrent.com%3A80&amp;tr=udp%3A%2F%2Fopen.demonii.com%3A1337&amp;tr=udp%3A%2F%2Ftracker.coppersurfer.tk%3A6969&amp;tr=udp%3A%2F%2Fexodus.desync.com%3A6969","seeders":27,"leechers":3,"uploader":"lletaif","files":-1,"time":1323106560,"description":"Title: La Piel Que Habito aka The Skin I Live In (2011)\n\nDirector: Pedro Almodovar\n\nWriters: Pedro Almodovar (screenplay), AgustÃƒÂ­n Almodovar (collaboration)\n\nStars: Antonio Banderas, Elena Anaya and Jan Cornet\n\nDVD Release date: 04 december 2011, Russia \n\nLanguage: Spanhish (original)\n\nPlot: A brilliant plastic surgeon, haunted by past tragedies, creates a type of synthetic skin that withstands any kind of damage. His guinea pig: a mysterious and volatile woman who holds the key to his obsession.\n\nImdb: http://www.imdb.com/title/tt1189073/\n\nRip spec: \n\n\nGeneral\nComplete name                    : La.Piel.Que.Habito.2011.DVDRip.AC3.HORiZON-ArtSubs\nFormat                           : AVI\nFormat/Info                      : Audio Video Interleave\nFile size                        : 1.46 GiB\nDuration                         : 1h 55mn\nOverall bit rate                 : 1 815 Kbps\nWriting application              : FairUse Wizard - http://fairusewizard.com\nWriting library                  : The best and REALLY easy backup tool\n\nVideo\nID                               : 0\nFormat                           : MPEG-4 Visual\nFormat profile                   : Advanced Simple@L5\nFormat settings, BVOP            : 1\nFormat settings, QPel            : No\nFormat settings, GMC             : No warppoints\nFormat settings, Matrix          : Default (MPEG)\nMuxing mode                      : Packed bitstream\nCodec ID                         : XVID\nCodec ID/Hint                    : XviD\nDuration                         : 1h 55mn\nBit rate                         : 1 421 Kbps\nWidth                            : 704 pixels\nHeight                           : 384 pixels\nDisplay aspect ratio             : 16:9\nFrame rate                       : 25.000 fps\nColor space                      : YUV\nChroma subsampling               : 4:2:0\nBit depth                        : 8 bits\nScan type                        : Progressive\nCompression mode                 : Lossy\nBits/(Pixel*Frame)               : 0.210\nStream size                      : 1.15 GiB (78%)\nWriting library                  : XviD 1.2.0.dev47 (UTC 2006-11-01)\n\nAudio\nID                               : 1\nFormat                           : AC-3\nFormat/Info                      : Audio Coding 3\nMode extension                   : CM (complete main)\nCodec ID                         : 2000\nDuration                         : 1h 55mn\nBit rate mode                    : Constant\nBit rate                         : 384 Kbps\nChannel(s)                       : 6 channels\nChannel positions                : Front: L C R, Side: L R, LFE\nSampling rate                    : 48.0 KHz\nBit depth                        : 16 bits\nCompression mode                 : Lossy\nStream size                      : 317 MiB (21%)\nAlignment                        : Split accross interleaves\nInterleave, duration             : 40 ms (1.00 video frame)\nInterleave, preload duration     : 500 ms\n","torrent":{"xt":"urn:btih:8854575fd2d8a1b2813830954f14444685600110","amp;dn":"La.Piel.Que.Habito.2011.DVDRip.AC3.HORiZON-ArtSubs","amp;tr":["udp%3A%2F%2Ftracker.openbittorrent.com%3A80","udp%3A%2F%2Fopen.demonii.com%3A1337","udp%3A%2F%2Ftracker.coppersurfer.tk%3A6969","udp%3A%2F%2Fexodus.desync.com%3A6969"],"infoHash":"8854575fd2d8a1b2813830954f14444685600110","infoHashBuffer":{"type":"Buffer","data":[136,84,87,95,210,216,161,178,129,56,48,149,79,20,68,70,133,96,1,16]},"announce":[],"urlList":[]}}